<?xml version="1.0" standalone="no"?>
<!DOCTYPE svg PUBLIC "-//W3C//DTD SVG 20010904//EN"
 "http://www.w3.org/TR/2001/REC-SVG-20010904/DTD/svg10.dtd">
<svg version="1.0" xmlns="http://www.w3.org/2000/svg"
 width="985.000000pt" height="697.000000pt" viewBox="0 0 985.000000 697.000000"
 preserveAspectRatio="xMidYMid meet">
<metadata>
Created by potrace 1.16, written by Peter Selinger 2001-2019
</metadata>
<g transform="translate(0.000000,697.000000) scale(0.100000,-0.100000)"
fill="#000000" stroke="none">
<path d="M1702 6119 c-257 -33 -470 -223 -539 -479 -17 -60 -18 -159 -18
-1410 0 -1505 -5 -1394 72 -1550 52 -104 169 -221 273 -273 100 -49 171 -66
312 -74 l117 -6 -5 -26 c-68 -358 -222 -1206 -219 -1209 2 -2 238 182 524 410
287 227 638 505 780 618 l260 205 1753 5 1753 5 81 27 c195 67 345 217 412
412 l27 81 0 1360 c0 1265 -1 1365 -18 1425 -60 226 -234 401 -462 467 -56 17
-208 18 -2550 19 -1369 1 -2519 -2 -2553 -7z"/>
</g>
</svg>
